  0
SECTION
  2
HEADER
  9
$ACADVER
  1
AC1014
  9
$HANDSEED
  5
FFFF
  9
$INSUNITS
 70
     4
  9
$MEASUREMENT
 70
     1
  0
ENDSEC
  0
SECTION
  2
TABLES
  0
TABLE
  2
VPORT
  5
8
330
0
100
AcDbSymbolTable
 70
     4
  0
VPORT
  5
2E
330
8
100
AcDbSymbolTableRecord
100
AcDbViewportTableRecord
  2
*ACTIVE
 70
     0
 10
0.0
 20
0.0
 11
1.0
 21
1.0
 12
210.0
 22
148.5
 13
0.0
 23
0.0
 14
10.0
 24
10.0
 15
10.0
 25
10.0
 16
0.0
 26
0.0
 36
1.0
 17
0.0
 27
0.0
 37
0.0
 40
341.0
 41
1.24
 42
50.0
 43
0.0
 44
0.0
 50
0.0
 51
0.0
 71
     0
 72
   100
 73
     1
 74
     3
 75
     0
 76
     0
 77
     0
 78
     0
  0
ENDTAB
  0
TABLE
  2
LTYPE
  5
5
330
0
100
AcDbSymbolTable
 70
     1
  0
LTYPE
  5
14
330
5
100
AcDbSymbolTableRecord
100
AcDbLinetypeTableRecord
  2
BYBLOCK
 70
     0
  3

 72
    65
 73
     0
 40
0.0
  0
LTYPE
  5
15
330
5
100
AcDbSymbolTableRecord
100
AcDbLinetypeTableRecord
  2
BYLAYER
 70
     0
  3

 72
    65
 73
     0
 40
0.0
  0
LTYPE
  5
16
330
5
100
AcDbSymbolTableRecord
100
AcDbLinetypeTableRecord
  2
CONTINUOUS
 70
     0
  3
Solid line
 72
    65
 73
     0
 40
0.0
  0
ENDTAB
  0
TABLE
  2
LAYER
  5
2
100
AcDbSymbolTable
 70
2
  0
LAYER
  5
50
100
AcDbSymbolTableRecord
100
AcDbLayerTableRecord
  2
0
 70
0
  6
CONTINUOUS
  0
LAYER
  5
51
100
AcDbSymbolTableRecord
100
AcDbLayerTableRecord
  2
Calque_1
 70
0
  6
CONTINUOUS
  0
ENDTAB
  0
TABLE
  2
STYLE
  5
3
330
0
100
AcDbSymbolTable
 70
     1
  0
STYLE
  5
11
330
3
100
AcDbSymbolTableRecord
100
AcDbTextStyleTableRecord
  2
STANDARD
 70
     0
 40
0.0
 41
1.0
 50
0.0
 71
     0
 42
2.5
  3
txt
  4

  0
ENDTAB
  0
TABLE
  2
VIEW
  5
6
330
0
100
AcDbSymbolTable
 70
     0
  0
ENDTAB
  0
TABLE
  2
UCS
  5
7
330
0
100
AcDbSymbolTable
 70
     0
  0
ENDTAB
  0
TABLE
  2
APPID
  5
9
330
0
100
AcDbSymbolTable
 70
     2
  0
APPID
  5
12
330
9
100
AcDbSymbolTableRecord
100
AcDbRegAppTableRecord
  2
ACAD
 70
     0
  0
ENDTAB
  0
TABLE
  2
DIMSTYLE
  5
A
330
0
100
AcDbSymbolTable
 70
     1
  0
DIMSTYLE
105
27
330
A
100
AcDbSymbolTableRecord
100
AcDbDimStyleTableRecord
  2
ISO-25
 70
     0
  3

  4

  5

  6

  7

 40
1.0
 41
2.5
 42
0.625
 43
3.75
 44
1.25
 45
0.0
 46
0.0
 47
0.0
 48
0.0
140
2.5
141
2.5
142
0.0
143
0.03937007874016
144
1.0
145
0.0
146
1.0
147
0.625
 71
     0
 72
     0
 73
     0
 74
     0
 75
     0
 76
     0
 77
     1
 78
     8
170
     0
171
     3
172
     1
173
     0
174
     0
175
     0
176
     0
177
     0
178
     0
270
     2
271
     2
272
     2
273
     2
274
     3
340
11
275
     0
280
     0
281
     0
282
     0
283
     0
284
     8
285
     0
286
     0
287
     3
288
     0
  0
ENDTAB
  0
TABLE
  2
BLOCK_RECORD
  5
1
330
0
100
AcDbSymbolTable
 70
     1
  0
BLOCK_RECORD
  5
1F
330
1
100
AcDbSymbolTableRecord
100
AcDbBlockTableRecord
  2
*MODEL_SPACE
  0
BLOCK_RECORD
  5
1B
330
1
100
AcDbSymbolTableRecord
100
AcDbBlockTableRecord
  2
*PAPER_SPACE
  0
ENDTAB
  0
ENDSEC
  0
SECTION
  2
BLOCKS
  0
BLOCK
  5
20
330
1F
100
AcDbEntity
  8
0
100
AcDbBlockBegin
  2
*MODEL_SPACE
 70
     0
 10
0.0
 20
0.0
 30
0.0
  3
*MODEL_SPACE
  1

  0
ENDBLK
  5
21
330
1F
100
AcDbEntity
  8
0
100
AcDbBlockEnd
  0
BLOCK
  5
1C
330
1B
100
AcDbEntity
 67
     1
  8
0
100
AcDbBlockBegin
  2
*PAPER_SPACE
  1

  0
ENDBLK
  5
1D
330
1B
100
AcDbEntity
 67
     1
  8
0
100
AcDbBlockEnd
  0
ENDSEC
  0
SECTION
  2
ENTITIES
  0
SPLINE
  5
100
100
AcDbEntity
  8
Calque_1
 62
5
100
AcDbSpline
 70
8
 71
3
 72
8
 73
4
 74
0
 40
0
 40
0
 40
0
 40
0
 40
1
 40
1
 40
1
 40
1
 10
59.704227
 20
235.232682
 30
0.0
 10
59.432704
 20
235.434718
 30
0.0
 10
59.862597
 20
236.167172
 30
0.0
 10
60.253802
 20
236.169048
 30
0.0
  0
SPLINE
  5
101
100
AcDbEntity
  8
Calque_1
 62
5
100
AcDbSpline
 70
8
 71
3
 72
8
 73
4
 74
0
 40
0
 40
0
 40
0
 40
0
 40
1
 40
1
 40
1
 40
1
 10
60.253802
 20
236.169048
 30
0.0
 10
60.414499
 20
236.169048
 30
0.0
 10
60.673147
 20
236.360183
 30
0.0
 10
60.829462
 20
236.592661
 30
0.0
  0
SPLINE
  5
102
100
AcDbEntity
  8
Calque_1
 62
5
100
AcDbSpline
 70
8
 71
3
 72
8
 73
4
 74
0
 40
0
 40
0
 40
0
 40
0
 40
1
 40
1
 40
1
 40
1
 10
60.829462
 20
236.592661
 30
0.0
 10
60.985563
 20
236.824865
 30
0.0
 10
61.266002
 20
237.222777
 30
0.0
 10
61.452659
 20
237.476923
 30
0.0
  0
SPLINE
  5
103
100
AcDbEntity
  8
Calque_1
 62
5
100
AcDbSpline
 70
8
 71
3
 72
8
 73
4
 74
0
 40
0
 40
0
 40
0
 40
0
 40
1
 40
1
 40
1
 40
1
 10
61.452659
 20
237.476923
 30
0.0
 10
61.639317
 20
237.731097
 30
0.0
 10
61.828664
 20
238.077662
 30
0.0
 10
61.873485
 20
238.247098
 30
0.0
  0
SPLINE
  5
104
100
AcDbEntity
  8
Calque_1
 62
5
100
AcDbSpline
 70
8
 71
3
 72
8
 73
4
 74
0
 40
0
 40
0
 40
0
 40
0
 40
1
 40
1
 40
1
 40
1
 10
61.873485
 20
238.247098
 30
0.0
 10
61.918285
 20
238.416524
 30
0.0
 10
62.207329
 20
239.184860
 30
0.0
 10
62.515845
 20
239.954491
 30
0.0
  0
SPLINE
  5
105
100
AcDbEntity
  8
Calque_1
 62
5
100
AcDbSpline
 70
8
 71
3
 72
8
 73
4
 74
0
 40
0
 40
0
 40
0
 40
0
 40
1
 40
1
 40
1
 40
1
 10
62.515845
 20
239.954491
 30
0.0
 10
63.214510
 20
241.697362
 30
0.0
 10
63.697565
 20
243.537429
 30
0.0
 10
63.513326
 20
243.754037
 30
0.0
  0
SPLINE
  5
106
100
AcDbEntity
  8
Calque_1
 62
5
100
AcDbSpline
 70
8
 71
3
 72
8
 73
4
 74
0
 40
0
 40
0
 40
0
 40
0
 40
1
 40
1
 40
1
 40
1
 10
63.513326
 20
243.754037
 30
0.0
 10
63.313825
 20
243.988508
 30
0.0
 10
61.244967
 20
241.502727
 30
0.0
 10
60.824746
 20
240.523651
 30
0.0
  0
SPLINE
  5
107
100
AcDbEntity
  8
Calque_1
 62
5
100
AcDbSpline
 70
8
 71
3
 72
8
 73
4
 74
0
 40
0
 40
0
 40
0
 40
0
 40
1
 40
1
 40
1
 40
1
 10
60.824746
 20
240.523651
 30
0.0
 10
60.459349
 20
239.672321
 30
0.0
 10
60.144456
 20
238.654263
 30
0.0
 10
60.049163
 20
238.016043
 30
0.0
  0
SPLINE
  5
108
100
AcDbEntity
  8
Calque_1
 62
5
100
AcDbSpline
 70
8
 71
3
 72
8
 73
4
 74
0
 40
0
 40
0
 40
0
 40
0
 40
1
 40
1
 40
1
 40
1
 10
60.049163
 20
238.016043
 30
0.0
 10
60.017523
 20
237.804273
 30
0.0
 10
59.983613
 20
238.150835
 30
0.0
 10
59.973763
 20
238.786219
 30
0.0
  0
SPLINE
  5
109
100
AcDbEntity
  8
Calque_1
 62
5
100
AcDbSpline
 70
8
 71
3
 72
8
 73
4
 74
0
 40
0
 40
0
 40
0
 40
0
 40
1
 40
1
 40
1
 40
1
 10
59.973763
 20
238.786219
 30
0.0
 10
59.955023
 20
240.003089
 30
0.0
 10
60.020873
 20
240.302233
 30
0.0
 10
61.043173
 20
243.638223
 30
0.0
  0
SPLINE
  5
10a
100
AcDbEntity
  8
Calque_1
 62
5
100
AcDbSpline
 70
8
 71
3
 72
8
 73
4
 74
0
 40
0
 40
0
 40
0
 40
0
 40
1
 40
1
 40
1
 40
1
 10
61.043173
 20
243.638223
 30
0.0
 10
61.541884
 20
245.265644
 30
0.0
 10
62.055493
 20
246.238222
 30
0.0
 10
63.197893
 20
247.718425
 30
0.0
  0
SPLINE
  5
10b
100
AcDbEntity
  8
Calque_1
 62
5
100
AcDbSpline
 70
8
 71
3
 72
8
 73
4
 74
0
 40
0
 40
0
 40
0
 40
0
 40
1
 40
1
 40
1
 40
1
 10
63.197893
 20
247.718425
 30
0.0
 10
63.360645
 20
247.929353
 30
0.0
 10
63.576076
 20
248.310556
 30
0.0
 10
63.676597
 20
248.565607
 30
0.0
  0
SPLINE
  5
10c
100
AcDbEntity
  8
Calque_1
 62
5
100
AcDbSpline
 70
8
 71
3
 72
8
 73
4
 74
0
 40
0
 40
0
 40
0
 40
0
 40
1
 40
1
 40
1
 40
1
 10
63.676597
 20
248.565607
 30
0.0
 10
64.244034
 20
250.005312
 30
0.0
 10
64.416638
 20
250.524059
 30
0.0
 10
64.529884
 20
251.129973
 30
0.0
  0
SPLINE
  5
10d
100
AcDbEntity
  8
Calque_1
 62
5
100
AcDbSpline
 70
8
 71
3
 72
8
 73
4
 74
0
 40
0
 40
0
 40
0
 40
0
 40
1
 40
1
 40
1
 40
1
 10
64.529884
 20
251.129973
 30
0.0
 10
64.598984
 20
251.499539
 30
0.0
 10
64.751086
 20
252.277662
 30
0.0
 10
64.867898
 20
252.859123
 30
0.0
  0
SPLINE
  5
10e
100
AcDbEntity
  8
Calque_1
 62
5
100
AcDbSpline
 70
8
 71
3
 72
8
 73
4
 74
0
 40
0
 40
0
 40
0
 40
0
 40
1
 40
1
 40
1
 40
1
 10
64.867898
 20
252.859123
 30
0.0
 10
64.984708
 20
253.440585
 30
0.0
 10
65.057336
 20
253.943284
 30
0.0
 10
65.029320
 20
253.976226
 30
0.0
  0
SPLINE
  5
10f
100
AcDbEntity
  8
Calque_1
 62
5
100
AcDbSpline
 70
8
 71
3
 72
8
 73
4
 74
0
 40
0
 40
0
 40
0
 40
0
 40
1
 40
1
 40
1
 40
1
 10
65.029320
 20
253.976226
 30
0.0
 10
64.940340
 20
254.080830
 30
0.0
 10
63.683912
 20
253.207383
 30
0.0
 10
63.195084
 20
252.701117
 30
0.0
  0
SPLINE
  5
110
100
AcDbEntity
  8
Calque_1
 62
5
100
AcDbSpline
 70
8
 71
3
 72
8
 73
4
 74
0
 40
0
 40
0
 40
0
 40
0
 40
1
 40
1
 40
1
 40
1
 10
63.195084
 20
252.701117
 30
0.0
 10
62.333666
 20
251.808963
 30
0.0
 10
62.140330
 20
251.144751
 30
0.0
 10
62.059030
 20
248.798295
 30
0.0
  0
SPLINE
  5
111
100
AcDbEntity
  8
Calque_1
 62
5
100
AcDbSpline
 70
8
 71
3
 72
8
 73
4
 74
0
 40
0
 40
0
 40
0
 40
0
 40
1
 40
1
 40
1
 40
1
 10
62.059030
 20
248.798295
 30
0.0
 10
62.007410
 20
247.307451
 30
0.0
 10
61.927013
 20
246.588053
 30
0.0
 10
61.775022
 20
246.256750
 30
0.0
  0
SPLINE
  5
112
100
AcDbEntity
  8
Calque_1
 62
5
100
AcDbSpline
 70
8
 71
3
 72
8
 73
4
 74
0
 40
0
 40
0
 40
0
 40
0
 40
1
 40
1
 40
1
 40
1
 10
61.775022
 20
246.256750
 30
0.0
 10
61.558627
 20
245.785026
 30
0.0
 10
60.333990
 20
243.363162
 30
0.0
 10
60.100427
 20
242.945085
 30
0.0
  0
SPLINE
  5
113
100
AcDbEntity
  8
Calque_1
 62
5
100
AcDbSpline
 70
8
 71
3
 72
8
 73
4
 74
0
 40
0
 40
0
 40
0
 40
0
 40
1
 40
1
 40
1
 40
1
 10
60.100427
 20
242.945085
 30
0.0
 10
60.014297
 20
242.790886
 30
0.0
 10
59.972246
 20
244.328124
 30
0.0
 10
59.974004
 20
247.566040
 30
0.0
  0
SPLINE
  5
114
100
AcDbEntity
  8
Calque_1
 62
5
100
AcDbSpline
 70
8
 71
3
 72
8
 73
4
 74
0
 40
0
 40
0
 40
0
 40
0
 40
1
 40
1
 40
1
 40
1
 10
59.974004
 20
247.566040
 30
0.0
 10
59.974004
 20
250.234645
 30
0.0
 10
60.005504
 20
252.334602
 30
0.0
 10
60.040734
 20
252.232599
 30
0.0
  0
SPLINE
  5
115
100
AcDbEntity
  8
Calque_1
 62
5
100
AcDbSpline
 70
8
 71
3
 72
8
 73
4
 74
0
 40
0
 40
0
 40
0
 40
0
 40
1
 40
1
 40
1
 40
1
 10
60.040734
 20
252.232599
 30
0.0
 10
60.087164
 20
252.098252
 30
0.0
 10
60.362972
 20
252.156619
 30
0.0
 10
61.041751
 20
252.444433
 30
0.0
  0
SPLINE
  5
116
100
AcDbEntity
  8
Calque_1
 62
5
100
AcDbSpline
 70
8
 71
3
 72
8
 73
4
 74
0
 40
0
 40
0
 40
0
 40
0
 40
1
 40
1
 40
1
 40
1
 10
61.041751
 20
252.444433
 30
0.0
 10
62.186024
 20
252.929634
 30
0.0
 10
62.695675
 20
253.306667
 30
0.0
 10
63.608079
 20
254.342923
 30
0.0
  0
SPLINE
  5
117
100
AcDbEntity
  8
Calque_1
 62
5
100
AcDbSpline
 70
8
 71
3
 72
8
 73
4
 74
0
 40
0
 40
0
 40
0
 40
0
 40
1
 40
1
 40
1
 40
1
 10
63.608079
 20
254.342923
 30
0.0
 10
64.244818
 20
255.066131
 30
0.0
 10
64.292480
 20
255.165111
 30
0.0
 10
64.108058
 20
255.381871
 30
0.0
  0
SPLINE
  5
118
100
AcDbEntity
  8
Calque_1
 62
5
100
AcDbSpline
 70
8
 71
3
 72
8
 73
4
 74
0
 40
0
 40
0
 40
0
 40
0
 40
1
 40
1
 40
1
 40
1
 10
64.108058
 20
255.381871
 30
0.0
 10
63.934518
 20
255.585876
 30
0.0
 10
63.843939
 20
255.592102
 30
0.0
 10
63.498339
 20
255.423821
 30
0.0
  0
SPLINE
  5
119
100
AcDbEntity
  8
Calque_1
 62
5
100
AcDbSpline
 70
8
 71
3
 72
8
 73
4
 74
0
 40
0
 40
0
 40
0
 40
0
 40
1
 40
1
 40
1
 40
1
 10
63.498339
 20
255.423821
 30
0.0
 10
63.275082
 20
255.315103
 30
0.0
 10
63.067570
 20
255.255358
 30
0.0
 10
63.037256
 20
255.290995
 30
0.0
  0
SPLINE
  5
11a
100
AcDbEntity
  8
Calque_1
 62
5
100
AcDbSpline
 70
8
 71
3
 72
8
 73
4
 74
0
 40
0
 40
0
 40
0
 40
0
 40
1
 40
1
 40
1
 40
1
 10
63.037256
 20
255.290995
 30
0.0
 10
63.006916
 20
255.326655
 30
0.0
 10
63.163191
 20
255.802824
 30
0.0
 10
63.384550
 20
256.349104
 30
0.0
  0
SPLINE
  5
11b
100
AcDbEntity
  8
Calque_1
 62
5
100
AcDbSpline
 70
8
 71
3
 72
8
 73
4
 74
0
 40
0
 40
0
 40
0
 40
0
 40
1
 40
1
 40
1
 40
1
 10
63.384550
 20
256.349104
 30
0.0
 10
63.864733
 20
257.534211
 30
0.0
 10
63.974714
 20
258.602988
 30
0.0
 10
63.756414
 20
259.963024
 30
0.0
  0
SPLINE
  5
11c
100
AcDbEntity
  8
Calque_1
 62
5
100
AcDbSpline
 70
8
 71
3
 72
8
 73
4
 74
0
 40
0
 40
0
 40
0
 40
0
 40
1
 40
1
 40
1
 40
1
 10
63.756414
 20
259.963024
 30
0.0
 10
63.512846
 20
261.480436
 30
0.0
 10
63.251447
 20
261.321067
 30
0.0
 10
62.245533
 20
259.041766
 30
0.0
  0
SPLINE
  5
11d
100
AcDbEntity
  8
Calque_1
 62
5
100
AcDbSpline
 70
8
 71
3
 72
8
 73
4
 74
0
 40
0
 40
0
 40
0
 40
0
 40
1
 40
1
 40
1
 40
1
 10
62.245533
 20
259.041766
 30
0.0
 10
61.681269
 20
257.763211
 30
0.0
 10
61.640831
 20
257.597135
 30
0.0
 10
61.720226
 20
256.885654
 30
0.0
  0
SPLINE
  5
11e
100
AcDbEntity
  8
Calque_1
 62
5
100
AcDbSpline
 70
8
 71
3
 72
8
 73
4
 74
0
 40
0
 40
0
 40
0
 40
0
 40
1
 40
1
 40
1
 40
1
 10
61.720226
 20
256.885654
 30
0.0
 10
61.767566
 20
256.461685
 30
0.0
 10
61.891168
 20
255.913560
 30
0.0
 10
61.994924
 20
255.667574
 30
0.0
  0
SPLINE
  5
11f
100
AcDbEntity
  8
Calque_1
 62
5
100
AcDbSpline
 70
8
 71
3
 72
8
 73
4
 74
0
 40
0
 40
0
 40
0
 40
0
 40
1
 40
1
 40
1
 40
1
 10
61.994924
 20
255.667574
 30
0.0
 10
62.098677
 20
255.421589
 30
0.0
 10
62.183545
 20
255.171040
 30
0.0
 10
62.183545
 20
255.110806
 30
0.0
  0
SPLINE
  5
120
100
AcDbEntity
  8
Calque_1
 62
5
100
AcDbSpline
 70
8
 71
3
 72
8
 73
4
 74
0
 40
0
 40
0
 40
0
 40
0
 40
1
 40
1
 40
1
 40
1
 10
62.183545
 20
255.110806
 30
0.0
 10
62.183545
 20
255.050596
 30
0.0
 10
61.739689
 20
254.750185
 30
0.0
 10
61.197156
 20
254.443209
 30
0.0
  0
SPLINE
  5
121
100
AcDbEntity
  8
Calque_1
 62
5
100
AcDbSpline
 70
8
 71
3
 72
8
 73
4
 74
0
 40
0
 40
0
 40
0
 40
0
 40
1
 40
1
 40
1
 40
1
 10
61.197156
 20
254.443209
 30
0.0
 10
60.552681
 20
254.078569
 30
0.0
 10
60.172839
 20
253.764581
 30
0.0
 10
60.101360
 20
253.537454
 30
0.0
  0
SPLINE
  5
122
100
AcDbEntity
  8
Calque_1
 62
5
100
AcDbSpline
 70
8
 71
3
 72
8
 73
4
 74
0
 40
0
 40
0
 40
0
 40
0
 40
1
 40
1
 40
1
 40
1
 10
60.101360
 20
253.537454
 30
0.0
 10
59.951031
 20
253.059809
 30
0.0
 10
59.772806
 20
261.303387
 30
0.0
 10
59.892792
 20
263.184408
 30
0.0
  0
SPLINE
  5
123
100
AcDbEntity
  8
Calque_1
 62
5
100
AcDbSpline
 70
8
 71
3
 72
8
 73
4
 74
0
 40
0
 40
0
 40
0
 40
0
 40
1
 40
1
 40
1
 40
1
 10
59.892792
 20
263.184408
 30
0.0
 10
59.944662
 20
263.997952
 30
0.0
 10
60.038376
 20
264.663585
 30
0.0
 10
60.100999
 20
264.663585
 30
0.0
  0
SPLINE
  5
124
100
AcDbEntity
  8
Calque_1
 62
5
100
AcDbSpline
 70
8
 71
3
 72
8
 73
4
 74
0
 40
0
 40
0
 40
0
 40
0
 40
1
 40
1
 40
1
 40
1
 10
60.100999
 20
264.663585
 30
0.0
 10
60.163649
 20
264.663585
 30
0.0
 10
60.436715
 20
264.131478
 30
0.0
 10
60.707847
 20
263.481108
 30
0.0
  0
SPLINE
  5
125
100
AcDbEntity
  8
Calque_1
 62
5
100
AcDbSpline
 70
8
 71
3
 72
8
 73
4
 74
0
 40
0
 40
0
 40
0
 40
0
 40
1
 40
1
 40
1
 40
1
 10
60.707847
 20
263.481108
 30
0.0
 10
61.246903
 20
262.187955
 30
0.0
 10
61.528372
 20
261.895849
 30
0.0
 10
61.528372
 20
262.629544
 30
0.0
  0
SPLINE
  5
126
100
AcDbEntity
  8
Calque_1
 62
5
100
AcDbSpline
 70
8
 71
3
 72
8
 73
4
 74
0
 40
0
 40
0
 40
0
 40
0
 40
1
 40
1
 40
1
 40
1
 10
61.528372
 20
262.629544
 30
0.0
 10
61.528372
 20
263.084732
 30
0.0
 10
61.801708
 20
264.011523
 30
0.0
 10
62.006529
 20
264.250889
 30
0.0
  0
SPLINE
  5
127
100
AcDbEntity
  8
Calque_1
 62
5
100
AcDbSpline
 70
8
 71
3
 72
8
 73
4
 74
0
 40
0
 40
0
 40
0
 40
0
 40
1
 40
1
 40
1
 40
1
 10
62.006529
 20
264.250889
 30
0.0
 10
62.066039
 20
264.320409
 30
0.0
 10
62.115457
 20
264.491586
 30
0.0
 10
62.116364
 20
264.631306
 30
0.0
  0
SPLINE
  5
128
100
AcDbEntity
  8
Calque_1
 62
5
100
AcDbSpline
 70
8
 71
3
 72
8
 73
4
 74
0
 40
0
 40
0
 40
0
 40
0
 40
1
 40
1
 40
1
 40
1
 10
62.116364
 20
264.631306
 30
0.0
 10
62.119464
 20
264.979899
 30
0.0
 10
62.921263
 20
265.138026
 30
0.0
 10
64.869804
 20
265.173841
 30
0.0
  0
SPLINE
  5
129
100
AcDbEntity
  8
Calque_1
 62
5
100
AcDbSpline
 70
8
 71
3
 72
8
 73
4
 74
0
 40
0
 40
0
 40
0
 40
0
 40
1
 40
1
 40
1
 40
1
 10
64.869804
 20
265.173841
 30
0.0
 10
67.104617
 20
265.214881
 30
0.0
 10
67.417244
 20
264.934111
 30
0.0
 10
67.753416
 20
262.584178
 30
0.0
  0
SPLINE
  5
12a
100
AcDbEntity
  8
Calque_1
 62
5
100
AcDbSpline
 70
8
 71
3
 72
8
 73
4
 74
0
 40
0
 40
0
 40
0
 40
0
 40
1
 40
1
 40
1
 40
1
 10
67.753416
 20
262.584178
 30
0.0
 10
67.801896
 20
262.245287
 30
0.0
 10
67.888028
 20
261.898720
 30
0.0
 10
67.944818
 20
261.814006
 30
0.0
  0
SPLINE
  5
12b
100
AcDbEntity
  8
Calque_1
 62
5
100
AcDbSpline
 70
8
 71
3
 72
8
 73
4
 74
0
 40
0
 40
0
 40
0
 40
0
 40
1
 40
1
 40
1
 40
1
 10
67.944818
 20
261.814006
 30
0.0
 10
68.001608
 20
261.729286
 30
0.0
 10
68.091279
 20
261.486691
 30
0.0
 10
68.144078
 20
261.274887
 30
0.0
  0
SPLINE
  5
12c
100
AcDbEntity
  8
Calque_1
 62
5
100
AcDbSpline
 70
8
 71
3
 72
8
 73
4
 74
0
 40
0
 40
0
 40
0
 40
0
 40
1
 40
1
 40
1
 40
1
 10
68.144078
 20
261.274887
 30
0.0
 10
68.196868
 20
261.063114
 30
0.0
 10
68.462992
 20
260.196680
 30
0.0
 10
68.735393
 20
259.349497
 30
0.0
  0
SPLINE
  5
12d
100
AcDbEntity
  8
Calque_1
 62
5
100
AcDbSpline
 70
8
 71
3
 72
8
 73
4
 74
0
 40
0
 40
0
 40
0
 40
0
 40
1
 40
1
 40
1
 40
1
 10
68.735393
 20
259.349497
 30
0.0
 10
69.350916
 20
257.435351
 30
0.0
 10
69.448233
 20
256.936247
 30
0.0
 10
69.711597
 20
254.343442
 30
0.0
  0
SPLINE
  5
12e
100
AcDbEntity
  8
Calque_1
 62
5
100
AcDbSpline
 70
8
 71
3
 72
8
 73
4
 74
0
 40
0
 40
0
 40
0
 40
0
 40
1
 40
1
 40
1
 40
1
 10
69.711597
 20
254.343442
 30
0.0
 10
69.945223
 20
252.043681
 30
0.0
 10
70.207315
 20
251.086697
 30
0.0
 10
71.018413
 20
249.572222
 30
0.0
  0
SPLINE
  5
12f
100
AcDbEntity
  8
Calque_1
 62
5
100
AcDbSpline
 70
8
 71
3
 72
8
 73
4
 74
0
 40
0
 40
0
 40
0
 40
0
 40
1
 40
1
 40
1
 40
1
 10
71.018413
 20
249.572222
 30
0.0
 10
71.312210
 20
249.023643
 30
0.0
 10
71.611570
 20
248.456870
 30
0.0
 10
71.683653
 20
248.312766
 30
0.0
  0
SPLINE
  5
130
100
AcDbEntity
  8
Calque_1
 62
5
100
AcDbSpline
 70
8
 71
3
 72
8
 73
4
 74
0
 40
0
 40
0
 40
0
 40
0
 40
1
 40
1
 40
1
 40
1
 10
71.683653
 20
248.312766
 30
0.0
 10
72.399092
 20
246.882219
 30
0.0
 10
72.535368
 20
246.575244
 30
0.0
 10
72.535368
 20
246.394540
 30
0.0
  0
SPLINE
  5
131
100
AcDbEntity
  8
Calque_1
 62
5
100
AcDbSpline
 70
8
 71
3
 72
8
 73
4
 74
0
 40
0
 40
0
 40
0
 40
0
 40
1
 40
1
 40
1
 40
1
 10
72.535368
 20
246.394540
 30
0.0
 10
72.535368
 20
246.279850
 30
0.0
 10
72.284758
 20
246.036910
 30
0.0
 10
71.978478
 20
245.854696
 30
0.0
  0
SPLINE
  5
132
100
AcDbEntity
  8
Calque_1
 62
5
100
AcDbSpline
 70
8
 71
3
 72
8
 73
4
 74
0
 40
0
 40
0
 40
0
 40
0
 40
1
 40
1
 40
1
 40
1
 10
71.978478
 20
245.854696
 30
0.0
 10
70.649025
 20
245.063789
 30
0.0
 10
70.495735
 20
244.744573
 30
0.0
 10
70.899665
 20
243.608187
 30
0.0
  0
SPLINE
  5
133
100
AcDbEntity
  8
Calque_1
 62
5
100
AcDbSpline
 70
8
 71
3
 72
8
 73
4
 74
0
 40
0
 40
0
 40
0
 40
0
 40
1
 40
1
 40
1
 40
1
 10
70.899665
 20
243.608187
 30
0.0
 10
71.096811
 20
243.053532
 30
0.0
 10
71.095057
 20
243.045585
 30
0.0
 10
70.687681
 20
242.645821
 30
0.0
  0
SPLINE
  5
134
100
AcDbEntity
  8
Calque_1
 62
5
100
AcDbSpline
 70
8
 71
3
 72
8
 73
4
 74
0
 40
0
 40
0
 40
0
 40
0
 40
1
 40
1
 40
1
 40
1
 10
70.687681
 20
242.645821
 30
0.0
 10
70.317662
 20
242.282690
 30
0.0
 10
70.297955
 20
242.222217
 30
0.0
 10
70.488904
 20
242.035924
 30
0.0
  0
SPLINE
  5
135
100
AcDbEntity
  8
Calque_1
 62
5
100
AcDbSpline
 70
8
 71
3
 72
8
 73
4
 74
0
 40
0
 40
0
 40
0
 40
0
 40
1
 40
1
 40
1
 40
1
 10
70.488904
 20
242.035924
 30
0.0
 10
70.795034
 20
241.737294
 30
0.0
 10
70.753143
 20
241.527270
 30
0.0
 10
70.292698
 20
241.052349
 30
0.0
  0
SPLINE
  5
136
100
AcDbEntity
  8
Calque_1
 62
5
100
AcDbSpline
 70
8
 71
3
 72
8
 73
4
 74
0
 40
0
 40
0
 40
0
 40
0
 40
1
 40
1
 40
1
 40
1
 10
70.292698
 20
241.052349
 30
0.0
 10
69.903425
 20
240.650806
 30
0.0
 10
69.894296
 20
240.615382
 30
0.0
 10
70.095521
 20
240.286403
 30
0.0
  0
SPLINE
  5
137
100
AcDbEntity
  8
Calque_1
 62
5
100
AcDbSpline
 70
8
 71
3
 72
8
 73
4
 74
0
 40
0
 40
0
 40
0
 40
0
 40
1
 40
1
 40
1
 40
1
 10
70.095521
 20
240.286403
 30
0.0
 10
70.659483
 20
239.364383
 30
0.0
 10
70.720353
 20
239.123270
 30
0.0
 10
70.509969
 20
238.645021
 30
0.0
  0
SPLINE
  5
138
100
AcDbEntity
  8
Calque_1
 62
5
100
AcDbSpline
 70
8
 71
3
 72
8
 73
4
 74
0
 40
0
 40
0
 40
0
 40
0
 40
1
 40
1
 40
1
 40
1
 10
70.509969
 20
238.645021
 30
0.0
 10
70.277432
 20
238.116415
 30
0.0
 10
70.107549
 20
238.065012
 30
0.0
 10
68.151846
 20
237.931546
 30
0.0
  0
SPLINE
  5
139
100
AcDbEntity
  8
Calque_1
 62
5
100
AcDbSpline
 70
8
 71
3
 72
8
 73
4
 74
0
 40
0
 40
0
 40
0
 40
0
 40
1
 40
1
 40
1
 40
1
 10
68.151846
 20
237.931546
 30
0.0
 10
67.362449
 20
237.877686
 30
0.0
 10
66.507440
 20
237.753166
 30
0.0
 10
66.251814
 20
237.654881
 30
0.0
  0
SPLINE
  5
13a
100
AcDbEntity
  8
Calque_1
 62
5
100
AcDbSpline
 70
8
 71
3
 72
8
 73
4
 74
0
 40
0
 40
0
 40
0
 40
0
 40
1
 40
1
 40
1
 40
1
 10
66.251814
 20
237.654881
 30
0.0
 10
65.769394
 20
237.469432
 30
0.0
 10
65.800070
 20
237.535295
 30
0.0
 10
65.330282
 20
235.675174
 30
0.0
  0
SPLINE
  5
13b
100
AcDbEntity
  8
Calque_1
 62
5
100
AcDbSpline
 70
8
 71
3
 72
8
 73
4
 74
0
 40
0
 40
0
 40
0
 40
0
 40
1
 40
1
 40
1
 40
1
 10
65.330282
 20
235.675174
 30
0.0
 10
65.248562
 20
235.351541
 30
0.0
 10
65.272942
 20
235.244861
 30
0.0
 10
65.440689
 20
235.192447
 30
0.0
  0
SPLINE
  5
13c
100
AcDbEntity
  8
Calque_1
 62
5
100
AcDbSpline
 70
8
 71
3
 72
8
 73
4
 74
0
 40
0
 40
0
 40
0
 40
0
 40
1
 40
1
 40
1
 40
1
 10
65.440689
 20
235.192447
 30
0.0
 10
65.559104
 20
235.155477
 30
0.0
 10
64.358765
 20
235.118227
 30
0.0
 10
62.773234
 20
235.109717
 30
0.0
  0
SPLINE
  5
13d
100
AcDbEntity
  8
Calque_1
 62
5
100
AcDbSpline
 70
8
 71
3
 72
8
 73
4
 74
0
 40
0
 40
0
 40
0
 40
0
 40
1
 40
1
 40
1
 40
1
 10
62.773234
 20
235.109717
 30
0.0
 10
61.187703
 20
235.101317
 30
0.0
 10
59.806661
 20
235.156587
 30
0.0
 10
59.704235
 20
235.232764
 30
0.0
  0
SPLINE
  5
13e
100
AcDbEntity
  8
Calque_1
 62
5
100
AcDbSpline
 70
8
 71
3
 72
8
 73
4
 74
0
 40
0
 40
0
 40
0
 40
0
 40
1
 40
1
 40
1
 40
1
 10
66.900846
 20
235.232780
 30
0.0
 10
66.900846
 20
235.311600
 30
0.0
 10
67.028567
 20
235.398221
 30
0.0
 10
67.184700
 20
235.425285
 30
0.0
  0
SPLINE
  5
13f
100
AcDbEntity
  8
Calque_1
 62
5
100
AcDbSpline
 70
8
 71
3
 72
8
 73
4
 74
0
 40
0
 40
0
 40
0
 40
0
 40
1
 40
1
 40
1
 40
1
 10
67.184700
 20
235.425285
 30
0.0
 10
67.355128
 20
235.455005
 30
0.0
 10
67.584431
 20
235.718422
 30
0.0
 10
67.758455
 20
236.084876
 30
0.0
  0
SPLINE
  5
140
100
AcDbEntity
  8
Calque_1
 62
5
100
AcDbSpline
 70
8
 71
3
 72
8
 73
4
 74
0
 40
0
 40
0
 40
0
 40
0
 40
1
 40
1
 40
1
 40
1
 10
67.758455
 20
236.084876
 30
0.0
 10
68.111009
 20
236.827156
 30
0.0
 10
68.263090
 20
236.885735
 30
0.0
 10
70.569834
 20
237.168127
 30
0.0
  0
SPLINE
  5
141
100
AcDbEntity
  8
Calque_1
 62
5
100
AcDbSpline
 70
8
 71
3
 72
8
 73
4
 74
0
 40
0
 40
0
 40
0
 40
0
 40
1
 40
1
 40
1
 40
1
 10
70.569834
 20
237.168127
 30
0.0
 10
70.894158
 20
237.207857
 30
0.0
 10
71.277416
 20
237.270931
 30
0.0
 10
71.421551
 20
237.308341
 30
0.0
  0
SPLINE
  5
142
100
AcDbEntity
  8
Calque_1
 62
5
100
AcDbSpline
 70
8
 71
3
 72
8
 73
4
 74
0
 40
0
 40
0
 40
0
 40
0
 40
1
 40
1
 40
1
 40
1
 10
71.421551
 20
237.308341
 30
0.0
 10
71.565714
 20
237.345721
 30
0.0
 10
71.812091
 20
237.381691
 30
0.0
 10
71.969102
 20
237.388131
 30
0.0
  0
SPLINE
  5
143
100
AcDbEntity
  8
Calque_1
 62
5
100
AcDbSpline
 70
8
 71
3
 72
8
 73
4
 74
0
 40
0
 40
0
 40
0
 40
0
 40
1
 40
1
 40
1
 40
1
 10
71.969102
 20
237.388131
 30
0.0
 10
72.701375
 20
237.418331
 30
0.0
 10
72.910064
 20
238.576227
 30
0.0
 10
72.329421
 20
239.387355
 30
0.0
  0
SPLINE
  5
144
100
AcDbEntity
  8
Calque_1
 62
5
100
AcDbSpline
 70
8
 71
3
 72
8
 73
4
 74
0
 40
0
 40
0
 40
0
 40
0
 40
1
 40
1
 40
1
 40
1
 10
72.329421
 20
239.387355
 30
0.0
 10
71.978863
 20
239.877086
 30
0.0
 10
71.990740
 20
240.000699
 30
0.0
 10
72.445381
 20
240.594457
 30
0.0
  0
SPLINE
  5
145
100
AcDbEntity
  8
Calque_1
 62
5
100
AcDbSpline
 70
8
 71
3
 72
8
 73
4
 74
0
 40
0
 40
0
 40
0
 40
0
 40
1
 40
1
 40
1
 40
1
 10
72.445381
 20
240.594457
 30
0.0
 10
72.683205
 20
240.905092
 30
0.0
 10
72.689764
 20
240.966421
 30
0.0
 10
72.511331
 20
241.210586
 30
0.0
  0
SPLINE
  5
146
100
AcDbEntity
  8
Calque_1
 62
5
100
AcDbSpline
 70
8
 71
3
 72
8
 73
4
 74
0
 40
0
 40
0
 40
0
 40
0
 40
1
 40
1
 40
1
 40
1
 10
72.511331
 20
241.210586
 30
0.0
 10
72.120425
 20
241.745509
 30
0.0
 10
72.129129
 20
241.845092
 30
0.0
 10
72.589461
 20
242.101839
 30
0.0
  0
LWPOLYLINE
  5
147
100
AcDbEntity
  8
Calque_1
 62
5
100
AcDbPolyline
 90
1
 70
1
 10
59.704235
 20
235.232764
 30
0.0
  0
SPLINE
  5
148
100
AcDbEntity
  8
Calque_1
 62
5
100
AcDbSpline
 70
8
 71
3
 72
8
 73
4
 74
0
 40
0
 40
0
 40
0
 40
0
 40
1
 40
1
 40
1
 40
1
 10
72.808393
 20
242.845147
 30
0.0
 10
72.679488
 20
243.114884
 30
0.0
 10
72.545816
 20
243.561700
 30
0.0
 10
72.511301
 20
243.838089
 30
0.0
  0
SPLINE
  5
149
100
AcDbEntity
  8
Calque_1
 62
5
100
AcDbSpline
 70
8
 71
3
 72
8
 73
4
 74
0
 40
0
 40
0
 40
0
 40
0
 40
1
 40
1
 40
1
 40
1
 10
72.511301
 20
243.838089
 30
0.0
 10
72.452731
 20
244.307333
 30
0.0
 10
72.498051
 20
244.378538
 30
0.0
 10
73.194403
 20
244.913607
 30
0.0
  0
SPLINE
  5
14a
100
AcDbEntity
  8
Calque_1
 62
5
100
AcDbSpline
 70
8
 71
3
 72
8
 73
4
 74
0
 40
0
 40
0
 40
0
 40
0
 40
1
 40
1
 40
1
 40
1
 10
73.194403
 20
244.913607
 30
0.0
 10
73.604622
 20
245.228742
 30
0.0
 10
74.044669
 20
245.558294
 30
0.0
 10
74.172302
 20
245.645942
 30
0.0
  0
SPLINE
  5
14b
100
AcDbEntity
  8
Calque_1
 62
5
100
AcDbSpline
 70
8
 71
3
 72
8
 73
4
 74
0
 40
0
 40
0
 40
0
 40
0
 40
1
 40
1
 40
1
 40
1
 10
74.172302
 20
245.645942
 30
0.0
 10
74.383741
 20
245.791073
 30
0.0
 10
74.348834
 20
245.907462
 30
0.0
 10
73.779461
 20
246.955204
 30
0.0
  0
SPLINE
  5
14c
100
AcDbEntity
  8
Calque_1
 62
5
100
AcDbSpline
 70
8
 71
3
 72
8
 73
4
 74
0
 40
0
 40
0
 40
0
 40
0
 40
1
 40
1
 40
1
 40
1
 10
73.779461
 20
246.955204
 30
0.0
 10
73.435764
 20
247.587681
 30
0.0
 10
73.112499
 20
248.139796
 30
0.0
 10
73.061090
 20
248.182169
 30
0.0
  0
SPLINE
  5
14d
100
AcDbEntity
  8
Calque_1
 62
5
100
AcDbSpline
 70
8
 71
3
 72
8
 73
4
 74
0
 40
0
 40
0
 40
0
 40
0
 40
1
 40
1
 40
1
 40
1
 10
73.061090
 20
248.182169
 30
0.0
 10
72.908318
 20
248.308075
 30
0.0
 10
72.318785
 20
249.463140
 30
0.0
 10
71.819411
 20
250.615030
 30
0.0
  0
SPLINE
  5
14e
100
AcDbEntity
  8
Calque_1
 62
5
100
AcDbSpline
 70
8
 71
3
 72
8
 73
4
 74
0
 40
0
 40
0
 40
0
 40
0
 40
1
 40
1
 40
1
 40
1
 10
71.819411
 20
250.615030
 30
0.0
 10
71.432708
 20
251.507004
 30
0.0
 10
71.318342
 20
252.005260
 30
0.0
 10
71.153021
 20
253.518226
 30
0.0
  0
SPLINE
  5
14f
100
AcDbEntity
  8
Calque_1
 62
5
100
AcDbSpline
 70
8
 71
3
 72
8
 73
4
 74
0
 40
0
 40
0
 40
0
 40
0
 40
1
 40
1
 40
1
 40
1
 10
71.153021
 20
253.518226
 30
0.0
 10
70.918007
 20
255.669351
 30
0.0
 10
70.709017
 20
256.603303
 30
0.0
 10
70.089352
 20
258.271253
 30
0.0
  0
SPLINE
  5
150
100
AcDbEntity
  8
Calque_1
 62
5
100
AcDbSpline
 70
8
 71
3
 72
8
 73
4
 74
0
 40
0
 40
0
 40
0
 40
0
 40
1
 40
1
 40
1
 40
1
 10
70.089352
 20
258.271253
 30
0.0
 10
68.891371
 20
261.495872
 30
0.0
 10
68.000033
 20
263.684230
 30
0.0
 10
67.836105
 20
263.803309
 30
0.0
  0
SPLINE
  5
151
100
AcDbEntity
  8
Calque_1
 62
5
100
AcDbSpline
 70
8
 71
3
 72
8
 73
4
 74
0
 40
0
 40
0
 40
0
 40
0
 40
1
 40
1
 40
1
 40
1
 10
67.836105
 20
263.803309
 30
0.0
 10
67.754145
 20
263.862879
 30
0.0
 10
67.687043
 20
263.983590
 30
0.0
 10
67.687043
 20
264.071599
 30
0.0
  0
SPLINE
  5
152
100
AcDbEntity
  8
Calque_1
 62
5
100
AcDbSpline
 70
8
 71
3
 72
8
 73
4
 74
0
 40
0
 40
0
 40
0
 40
0
 40
1
 40
1
 40
1
 40
1
 10
67.687043
 20
264.071599
 30
0.0
 10
67.687043
 20
264.181099
 30
0.0
 10
68.586390
 20
264.192679
 30
0.0
 10
70.537077
 20
264.108239
 30
0.0
  0
SPLINE
  5
153
100
AcDbEntity
  8
Calque_1
 62
5
100
AcDbSpline
 70
8
 71
3
 72
8
 73
4
 74
0
 40
0
 40
0
 40
0
 40
0
 40
1
 40
1
 40
1
 40
1
 10
70.537077
 20
264.108239
 30
0.0
 10
72.104597
 20
264.040429
 30
0.0
 10
73.888328
 20
264.011069
 30
0.0
 10
74.500921
 20
264.043079
 30
0.0
  0
SPLINE
  5
154
100
AcDbEntity
  8
Calque_1
 62
5
100
AcDbSpline
 70
8
 71
3
 72
8
 73
4
 74
0
 40
0
 40
0
 40
0
 40
0
 40
1
 40
1
 40
1
 40
1
 10
74.500921
 20
264.043079
 30
0.0
 10
75.113511
 20
264.075079
 30
0.0
 10
76.232671
 20
264.106489
 30
0.0
 10
76.987976
 20
264.112859
 30
0.0
  0
LWPOLYLINE
  5
155
100
AcDbEntity
  8
Calque_1
 62
5
100
AcDbPolyline
 90
3
 70
0
 10
72.589461
 20
242.101839
 30
0.0
 10
73.042744
 20
242.354687
 30
0.0
 10
72.808393
 20
242.845147
 30
0.0
  0
SPLINE
  5
156
100
AcDbEntity
  8
Calque_1
 62
5
100
AcDbSpline
 70
8
 71
3
 72
8
 73
4
 74
0
 40
0
 40
0
 40
0
 40
0
 40
1
 40
1
 40
1
 40
1
 10
78.408041
 20
263.354154
 30
0.0
 10
78.433741
 20
262.930548
 30
0.0
 10
78.532259
 20
262.480014
 30
0.0
 10
78.626917
 20
262.352926
 30
0.0
  0
SPLINE
  5
157
100
AcDbEntity
  8
Calque_1
 62
5
100
AcDbSpline
 70
8
 71
3
 72
8
 73
4
 74
0
 40
0
 40
0
 40
0
 40
0
 40
1
 40
1
 40
1
 40
1
 10
78.626917
 20
262.352926
 30
0.0
 10
78.937488
 20
261.935938
 30
0.0
 10
80.191534
 20
257.969375
 30
0.0
 10
80.082066
 20
257.750288
 30
0.0
  0
SPLINE
  5
158
100
AcDbEntity
  8
Calque_1
 62
5
100
AcDbSpline
 70
8
 71
3
 72
8
 73
4
 74
0
 40
0
 40
0
 40
0
 40
0
 40
1
 40
1
 40
1
 40
1
 10
80.082066
 20
257.750288
 30
0.0
 10
80.055786
 20
257.697858
 30
0.0
 10
79.994926
 20
257.100432
 30
0.0
 10
79.946673
 20
256.422711
 30
0.0
  0
SPLINE
  5
159
100
AcDbEntity
  8
Calque_1
 62
5
100
AcDbSpline
 70
8
 71
3
 72
8
 73
4
 74
0
 40
0
 40
0
 40
0
 40
0
 40
1
 40
1
 40
1
 40
1
 10
79.946673
 20
256.422711
 30
0.0
 10
79.898403
 20
255.744959
 30
0.0
 10
79.828747
 20
255.069142
 30
0.0
 10
79.791812
 20
254.920898
 30
0.0
  0
SPLINE
  5
15a
100
AcDbEntity
  8
Calque_1
 62
5
100
AcDbSpline
 70
8
 71
3
 72
8
 73
4
 74
0
 40
0
 40
0
 40
0
 40
0
 40
1
 40
1
 40
1
 40
1
 10
79.791812
 20
254.920898
 30
0.0
 10
79.749322
 20
254.750229
 30
0.0
 10
79.795712
 20
254.651338
 30
0.0
 10
79.918234
 20
254.651338
 30
0.0
  0
SPLINE
  5
15b
100
AcDbEntity
  8
Calque_1
 62
5
100
AcDbSpline
 70
8
 71
3
 72
8
 73
4
 74
0
 40
0
 40
0
 40
0
 40
0
 40
1
 40
1
 40
1
 40
1
 10
79.918234
 20
254.651338
 30
0.0
 10
80.034236
 20
254.651338
 30
0.0
 10
80.423474
 20
255.381830
 30
0.0
 10
80.889573
 20
256.474301
 30
0.0
  0
SPLINE
  5
15c
100
AcDbEntity
  8
Calque_1
 62
5
100
AcDbSpline
 70
8
 71
3
 72
8
 73
4
 74
0
 40
0
 40
0
 40
0
 40
0
 40
1
 40
1
 40
1
 40
1
 10
80.889573
 20
256.474301
 30
0.0
 10
81.317351
 20
257.476952
 30
0.0
 10
81.838638
 20
258.530890
 30
0.0
 10
82.047963
 20
258.816437
 30
0.0
  0
SPLINE
  5
15d
100
AcDbEntity
  8
Calque_1
 62
5
100
AcDbSpline
 70
8
 71
3
 72
8
 73
4
 74
0
 40
0
 40
0
 40
0
 40
0
 40
1
 40
1
 40
1
 40
1
 10
82.047963
 20
258.816437
 30
0.0
 10
82.855099
 20
259.917311
 30
0.0
 10
83.582054
 20
260.812608
 30
0.0
 10
83.668855
 20
260.812608
 30
0.0
  0
SPLINE
  5
15e
100
AcDbEntity
  8
Calque_1
 62
5
100
AcDbSpline
 70
8
 71
3
 72
8
 73
4
 74
0
 40
0
 40
0
 40
0
 40
0
 40
1
 40
1
 40
1
 40
1
 10
83.668855
 20
260.812608
 30
0.0
 10
83.772454
 20
260.812608
 30
0.0
 10
84.066531
 20
259.413734
 30
0.0
 10
84.066531
 20
258.920856
 30
0.0
  0
SPLINE
  5
15f
100
AcDbEntity
  8
Calque_1
 62
5
100
AcDbSpline
 70
8
 71
3
 72
8
 73
4
 74
0
 40
0
 40
0
 40
0
 40
0
 40
1
 40
1
 40
1
 40
1
 10
84.066531
 20
258.920856
 30
0.0
 10
84.066531
 20
258.740486
 30
0.0
 10
83.845418
 20
257.735388
 30
0.0
 10
83.575163
 20
256.687283
 30
0.0
  0
LWPOLYLINE
  5
160
100
AcDbEntity
  8
Calque_1
 62
5
100
AcDbPolyline
 90
3
 70
0
 10
76.987976
 20
264.112859
 30
0.0
 10
78.361251
 20
264.124299
 30
0.0
 10
78.408041
 20
263.354154
 30
0.0
  0
SPLINE
  5
161
100
AcDbEntity
  8
Calque_1
 62
5
100
AcDbSpline
 70
8
 71
3
 72
8
 73
4
 74
0
 40
0
 40
0
 40
0
 40
0
 40
1
 40
1
 40
1
 40
1
 10
81.869526
 20
253.783030
 30
0.0
 10
81.201687
 20
253.233756
 30
0.0
 10
80.558722
 20
252.611131
 30
0.0
 10
80.440701
 20
252.399388
 30
0.0
  0
SPLINE
  5
162
100
AcDbEntity
  8
Calque_1
 62
5
100
AcDbSpline
 70
8
 71
3
 72
8
 73
4
 74
0
 40
0
 40
0
 40
0
 40
0
 40
1
 40
1
 40
1
 40
1
 10
80.440701
 20
252.399388
 30
0.0
 10
80.305545
 20
252.156908
 30
0.0
 10
80.206683
 20
251.576083
 30
0.0
 10
80.173560
 20
250.829877
 30
0.0
  0
LWPOLYLINE
  5
163
100
AcDbEntity
  8
Calque_1
 62
5
100
AcDbPolyline
 90
3
 70
0
 10
83.575163
 20
256.687283
 30
0.0
 10
83.083767
 20
254.781689
 30
0.0
 10
81.869526
 20
253.783030
 30
0.0
  0
SPLINE
  5
164
100
AcDbEntity
  8
Calque_1
 62
5
100
AcDbSpline
 70
8
 71
3
 72
8
 73
4
 74
0
 40
0
 40
0
 40
0
 40
0
 40
1
 40
1
 40
1
 40
1
 10
80.438314
 20
250.084152
 30
0.0
 10
80.612853
 20
250.325513
 30
0.0
 10
81.024611
 20
251.087951
 30
0.0
 10
81.353317
 20
251.778486
 30
0.0
  0
SPLINE
  5
165
100
AcDbEntity
  8
Calque_1
 62
5
100
AcDbSpline
 70
8
 71
3
 72
8
 73
4
 74
0
 40
0
 40
0
 40
0
 40
0
 40
1
 40
1
 40
1
 40
1
 10
81.353317
 20
251.778486
 30
0.0
 10
81.682022
 20
252.469022
 30
0.0
 10
82.062862
 20
253.137979
 30
0.0
 10
82.199652
 20
253.265037
 30
0.0
  0
SPLINE
  5
166
100
AcDbEntity
  8
Calque_1
 62
5
100
AcDbSpline
 70
8
 71
3
 72
8
 73
4
 74
0
 40
0
 40
0
 40
0
 40
0
 40
1
 40
1
 40
1
 40
1
 10
82.199652
 20
253.265037
 30
0.0
 10
82.809463
 20
253.831628
 30
0.0
 10
85.371259
 20
255.443756
 30
0.0
 10
85.506115
 20
255.345803
 30
0.0
  0
SPLINE
  5
167
100
AcDbEntity
  8
Calque_1
 62
5
100
AcDbSpline
 70
8
 71
3
 72
8
 73
4
 74
0
 40
0
 40
0
 40
0
 40
0
 40
1
 40
1
 40
1
 40
1
 10
85.506115
 20
255.345803
 30
0.0
 10
85.632482
 20
255.254023
 30
0.0
 10
85.061261
 20
253.439999
 30
0.0
 10
84.340079
 20
251.642754
 30
0.0
  0
SPLINE
  5
168
100
AcDbEntity
  8
Calque_1
 62
5
100
AcDbSpline
 70
8
 71
3
 72
8
 73
4
 74
0
 40
0
 40
0
 40
0
 40
0
 40
1
 40
1
 40
1
 40
1
 10
84.340079
 20
251.642754
 30
0.0
 10
84.067043
 20
250.962312
 30
0.0
 10
83.770374
 20
250.144659
 30
0.0
 10
83.680854
 20
249.825806
 30
0.0
  0
SPLINE
  5
169
100
AcDbEntity
  8
Calque_1
 62
5
100
AcDbSpline
 70
8
 71
3
 72
8
 73
4
 74
0
 40
0
 40
0
 40
0
 40
0
 40
1
 40
1
 40
1
 40
1
 10
83.680854
 20
249.825806
 30
0.0
 10
83.505439
 20
249.201005
 30
0.0
 10
82.980828
 20
248.726110
 30
0.0
 10
81.771483
 20
248.097441
 30
0.0
  0
SPLINE
  5
16a
100
AcDbEntity
  8
Calque_1
 62
5
100
AcDbSpline
 70
8
 71
3
 72
8
 73
4
 74
0
 40
0
 40
0
 40
0
 40
0
 40
1
 40
1
 40
1
 40
1
 10
81.771483
 20
248.097441
 30
0.0
 10
81.406419
 20
247.907640
 30
0.0
 10
81.044436
 20
247.658420
 30
0.0
 10
80.967066
 20
247.543602
 30
0.0
  0
SPLINE
  5
16b
100
AcDbEntity
  8
Calque_1
 62
5
100
AcDbSpline
 70
8
 71
3
 72
8
 73
4
 74
0
 40
0
 40
0
 40
0
 40
0
 40
1
 40
1
 40
1
 40
1
 10
80.967066
 20
247.543602
 30
0.0
 10
80.801414
 20
247.297769
 30
0.0
 10
80.806037
 20
247.339083
 30
0.0
 10
80.707088
 20
245.216881
 30
0.0
  0
SPLINE
  5
16c
100
AcDbEntity
  8
Calque_1
 62
5
100
AcDbSpline
 70
8
 71
3
 72
8
 73
4
 74
0
 40
0
 40
0
 40
0
 40
0
 40
1
 40
1
 40
1
 40
1
 10
80.707088
 20
245.216881
 30
0.0
 10
80.643608
 20
243.855575
 30
0.0
 10
80.662598
 20
243.561021
 30
0.0
 10
80.813714
 20
243.561021
 30
0.0
  0
SPLINE
  5
16d
100
AcDbEntity
  8
Calque_1
 62
5
100
AcDbSpline
 70
8
 71
3
 72
8
 73
4
 74
0
 40
0
 40
0
 40
0
 40
0
 40
1
 40
1
 40
1
 40
1
 10
80.813714
 20
243.561021
 30
0.0
 10
80.914802
 20
243.561021
 30
0.0
 10
81.407961
 20
243.997865
 30
0.0
 10
81.909602
 20
244.531756
 30
0.0
  0
SPLINE
  5
16e
100
AcDbEntity
  8
Calque_1
 62
5
100
AcDbSpline
 70
8
 71
3
 72
8
 73
4
 74
0
 40
0
 40
0
 40
0
 40
0
 40
1
 40
1
 40
1
 40
1
 10
81.909602
 20
244.531756
 30
0.0
 10
82.905120
 20
245.591255
 30
0.0
 10
83.414075
 20
245.993826
 30
0.0
 10
84.362293
 20
246.471591
 30
0.0
  0
LWPOLYLINE
  5
16f
100
AcDbEntity
  8
Calque_1
 62
5
100
AcDbPolyline
 90
3
 70
0
 10
80.173560
 20
250.829877
 30
0.0
 10
80.120940
 20
249.645282
 30
0.0
 10
80.438314
 20
250.084152
 30
0.0
  0
SPLINE
  5
170
100
AcDbEntity
  8
Calque_1
 62
5
100
AcDbSpline
 70
8
 71
3
 72
8
 73
4
 74
0
 40
0
 40
0
 40
0
 40
0
 40
1
 40
1
 40
1
 40
1
 10
84.983801
 20
245.030707
 30
0.0
 10
84.983801
 20
243.286419
 30
0.0
 10
84.980901
 20
243.274083
 30
0.0
 10
84.589933
 20
242.813695
 30
0.0
  0
SPLINE
  5
171
100
AcDbEntity
  8
Calque_1
 62
5
100
AcDbSpline
 70
8
 71
3
 72
8
 73
4
 74
0
 40
0
 40
0
 40
0
 40
0
 40
1
 40
1
 40
1
 40
1
 10
84.589933
 20
242.813695
 30
0.0
 10
84.175665
 20
242.326715
 30
0.0
 10
84.184884
 20
242.329157
 30
0.0
 10
81.774657
 20
242.060448
 30
0.0
  0
LWPOLYLINE
  5
172
100
AcDbEntity
  8
Calque_1
 62
5
100
AcDbPolyline
 90
3
 70
0
 10
84.362293
 20
246.471591
 30
0.0
 10
84.983801
 20
246.784762
 30
0.0
 10
84.983801
 20
245.030707
 30
0.0
  0
SPLINE
  5
173
100
AcDbEntity
  8
Calque_1
 62
5
100
AcDbSpline
 70
8
 71
3
 72
8
 73
4
 74
0
 40
0
 40
0
 40
0
 40
0
 40
1
 40
1
 40
1
 40
1
 10
80.727550
 20
240.480379
 30
0.0
 10
80.727519
 20
239.675570
 30
0.0
 10
80.798850
 20
238.635837
 30
0.0
 10
80.886038
 20
238.169890
 30
0.0
  0
SPLINE
  5
174
100
AcDbEntity
  8
Calque_1
 62
5
100
AcDbSpline
 70
8
 71
3
 72
8
 73
4
 74
0
 40
0
 40
0
 40
0
 40
0
 40
1
 40
1
 40
1
 40
1
 10
80.886038
 20
238.169890
 30
0.0
 10
81.268844
 20
236.124095
 30
0.0
 10
81.401765
 20
235.242850
 30
0.0
 10
81.338749
 20
235.168743
 30
0.0
  0
SPLINE
  5
175
100
AcDbEntity
  8
Calque_1
 62
5
100
AcDbSpline
 70
8
 71
3
 72
8
 73
4
 74
0
 40
0
 40
0
 40
0
 40
0
 40
1
 40
1
 40
1
 40
1
 10
81.338749
 20
235.168743
 30
0.0
 10
81.212745
 20
235.020639
 30
0.0
 10
66.900866
 20
235.083923
 30
0.0
 10
66.900866
 20
235.232503
 30
0.0
  0
LWPOLYLINE
  5
176
100
AcDbEntity
  8
Calque_1
 62
5
100
AcDbPolyline
 90
3
 70
0
 10
81.774657
 20
242.060448
 30
0.0
 10
80.727579
 20
241.943693
 30
0.0
 10
80.727550
 20
240.480379
 30
0.0
  0
SPLINE
  5
177
100
AcDbEntity
  8
Calque_1
 62
5
100
AcDbSpline
 70
8
 71
3
 72
8
 73
4
 74
0
 40
0
 40
0
 40
0
 40
0
 40
1
 40
1
 40
1
 40
1
 10
80.419888
 20
235.377994
 30
0.0
 10
80.264058
 20
235.494064
 30
0.0
 10
80.183302
 20
235.955105
 30
0.0
 10
79.944239
 20
238.093050
 30
0.0
  0
SPLINE
  5
178
100
AcDbEntity
  8
Calque_1
 62
5
100
AcDbSpline
 70
8
 71
3
 72
8
 73
4
 74
0
 40
0
 40
0
 40
0
 40
0
 40
1
 40
1
 40
1
 40
1
 10
79.944239
 20
238.093050
 30
0.0
 10
79.884489
 20
238.627429
 30
0.0
 10
79.672956
 20
241.246827
 30
0.0
 10
79.415546
 20
244.639422
 30
0.0
  0
SPLINE
  5
179
100
AcDbEntity
  8
Calque_1
 62
5
100
AcDbSpline
 70
8
 71
3
 72
8
 73
4
 74
0
 40
0
 40
0
 40
0
 40
0
 40
1
 40
1
 40
1
 40
1
 10
79.415546
 20
244.639422
 30
0.0
 10
79.329496
 20
245.773149
 30
0.0
 10
79.221180
 20
248.651925
 30
0.0
 10
79.148890
 20
251.724912
 30
0.0
  0
SPLINE
  5
17a
100
AcDbEntity
  8
Calque_1
 62
5
100
AcDbSpline
 70
8
 71
3
 72
8
 73
4
 74
0
 40
0
 40
0
 40
0
 40
0
 40
1
 40
1
 40
1
 40
1
 10
79.148890
 20
251.724912
 30
0.0
 10
79.121990
 20
252.868583
 30
0.0
 10
79.070490
 20
254.185552
 30
0.0
 10
79.034465
 20
254.651501
 30
0.0
  0
SPLINE
  5
17b
100
AcDbEntity
  8
Calque_1
 62
5
100
AcDbSpline
 70
8
 71
3
 72
8
 73
4
 74
0
 40
0
 40
0
 40
0
 40
0
 40
1
 40
1
 40
1
 40
1
 10
79.034465
 20
254.651501
 30
0.0
 10
78.998405
 20
255.117449
 30
0.0
 10
78.936275
 20
256.053216
 30
0.0
 10
78.896380
 20
256.730938
 30
0.0
  0
SPLINE
  5
17c
100
AcDbEntity
  8
Calque_1
 62
5
100
AcDbSpline
 70
8
 71
3
 72
8
 73
4
 74
0
 40
0
 40
0
 40
0
 40
0
 40
1
 40
1
 40
1
 40
1
 10
78.896380
 20
256.730938
 30
0.0
 10
78.791804
 20
258.507267
 30
0.0
 10
78.386094
 20
261.891009
 30
0.0
 10
78.277714
 20
261.891009
 30
0.0
  0
SPLINE
  5
17d
100
AcDbEntity
  8
Calque_1
 62
5
100
AcDbSpline
 70
8
 71
3
 72
8
 73
4
 74
0
 40
0
 40
0
 40
0
 40
0
 40
1
 40
1
 40
1
 40
1
 10
78.277714
 20
261.891009
 30
0.0
 10
78.137237
 20
261.891009
 30
0.0
 10
78.057751
 20
261.685825
 30
0.0
 10
77.974334
 20
261.107898
 30
0.0
  0
SPLINE
  5
17e
100
AcDbEntity
  8
Calque_1
 62
5
100
AcDbSpline
 70
8
 71
3
 72
8
 73
4
 74
0
 40
0
 40
0
 40
0
 40
0
 40
1
 40
1
 40
1
 40
1
 10
77.974334
 20
261.107898
 30
0.0
 10
77.932594
 20
260.818514
 30
0.0
 10
77.874139
 20
260.477780
 30
0.0
 10
77.844438
 20
260.350691
 30
0.0
  0
SPLINE
  5
17f
100
AcDbEntity
  8
Calque_1
 62
5
100
AcDbSpline
 70
8
 71
3
 72
8
 73
4
 74
0
 40
0
 40
0
 40
0
 40
0
 40
1
 40
1
 40
1
 40
1
 10
77.844438
 20
260.350691
 30
0.0
 10
77.814818
 20
260.223640
 30
0.0
 10
77.755218
 20
259.669101
 30
0.0
 10
77.712156
 20
259.118436
 30
0.0
  0
SPLINE
  5
180
100
AcDbEntity
  8
Calque_1
 62
5
100
AcDbSpline
 70
8
 71
3
 72
8
 73
4
 74
0
 40
0
 40
0
 40
0
 40
0
 40
1
 40
1
 40
1
 40
1
 10
77.712156
 20
259.118436
 30
0.0
 10
77.669086
 20
258.567773
 30
0.0
 10
77.603772
 20
257.998552
 30
0.0
 10
77.567024
 20
257.853481
 30
0.0
  0
SPLINE
  5
181
100
AcDbEntity
  8
Calque_1
 62
5
100
AcDbSpline
 70
8
 71
3
 72
8
 73
4
 74
0
 40
0
 40
0
 40
0
 40
0
 40
1
 40
1
 40
1
 40
1
 10
77.567024
 20
257.853481
 30
0.0
 10
77.508874
 20
257.623937
 30
0.0
 10
77.660534
 20
255.136792
 30
0.0
 10
77.853841
 20
253.149687
 30
0.0
  0
SPLINE
  5
182
100
AcDbEntity
  8
Calque_1
 62
5
100
AcDbSpline
 70
8
 71
3
 72
8
 73
4
 74
0
 40
0
 40
0
 40
0
 40
0
 40
1
 40
1
 40
1
 40
1
 10
77.853841
 20
253.149687
 30
0.0
 10
77.903561
 20
252.638948
 30
0.0
 10
77.874701
 20
252.495056
 30
0.0
 10
77.722312
 20
252.495056
 30
0.0
  0
SPLINE
  5
183
100
AcDbEntity
  8
Calque_1
 62
5
100
AcDbSpline
 70
8
 71
3
 72
8
 73
4
 74
0
 40
0
 40
0
 40
0
 40
0
 40
1
 40
1
 40
1
 40
1
 10
77.722312
 20
252.495056
 30
0.0
 10
77.535503
 20
252.495056
 30
0.0
 10
77.255003
 20
253.339699
 30
0.0
 10
77.253401
 20
253.906956
 30
0.0
  0
SPLINE
  5
184
100
AcDbEntity
  8
Calque_1
 62
5
100
AcDbSpline
 70
8
 71
3
 72
8
 73
4
 74
0
 40
0
 40
0
 40
0
 40
0
 40
1
 40
1
 40
1
 40
1
 10
77.253401
 20
253.906956
 30
0.0
 10
77.250501
 20
254.842813
 30
0.0
 10
73.535270
 20
259.734564
 30
0.0
 10
72.827114
 20
259.734564
 30
0.0
  0
SPLINE
  5
185
100
AcDbEntity
  8
Calque_1
 62
5
100
AcDbSpline
 70
8
 71
3
 72
8
 73
4
 74
0
 40
0
 40
0
 40
0
 40
0
 40
1
 40
1
 40
1
 40
1
 10
72.827114
 20
259.734564
 30
0.0
 10
72.594941
 20
259.734564
 30
0.0
 10
72.544498
 20
258.629246
 30
0.0
 10
72.733124
 20
257.674713
 30
0.0
  0
SPLINE
  5
186
100
AcDbEntity
  8
Calque_1
 62
5
100
AcDbSpline
 70
8
 71
3
 72
8
 73
4
 74
0
 40
0
 40
0
 40
0
 40
0
 40
1
 40
1
 40
1
 40
1
 10
72.733124
 20
257.674713
 30
0.0
 10
72.947679
 20
256.588738
 30
0.0
 10
73.436567
 20
255.116967
 30
0.0
 10
73.870842
 20
254.249444
 30
0.0
  0
SPLINE
  5
187
100
AcDbEntity
  8
Calque_1
 62
5
100
AcDbSpline
 70
8
 71
3
 72
8
 73
4
 74
0
 40
0
 40
0
 40
0
 40
0
 40
1
 40
1
 40
1
 40
1
 10
73.870842
 20
254.249444
 30
0.0
 10
74.235210
 20
253.521552
 30
0.0
 10
75.465894
 20
252.029561
 30
0.0
 10
76.531982
 20
251.023254
 30
0.0
  0
SPLINE
  5
188
100
AcDbEntity
  8
Calque_1
 62
5
100
AcDbSpline
 70
8
 71
3
 72
8
 73
4
 74
0
 40
0
 40
0
 40
0
 40
0
 40
1
 40
1
 40
1
 40
1
 10
76.531982
 20
251.023254
 30
0.0
 10
76.964383
 20
250.615093
 30
0.0
 10
77.396331
 20
250.153588
 30
0.0
 10
77.491837
 20
249.997726
 30
0.0
  0
SPLINE
  5
189
100
AcDbEntity
  8
Calque_1
 62
5
100
AcDbSpline
 70
8
 71
3
 72
8
 73
4
 74
0
 40
0
 40
0
 40
0
 40
0
 40
1
 40
1
 40
1
 40
1
 10
77.491837
 20
249.997726
 30
0.0
 10
77.587377
 20
249.841835
 30
0.0
 10
77.870742
 20
249.456221
 30
0.0
 10
78.121592
 20
249.140781
 30
0.0
  0
SPLINE
  5
18a
100
AcDbEntity
  8
Calque_1
 62
5
100
AcDbSpline
 70
8
 71
3
 72
8
 73
4
 74
0
 40
0
 40
0
 40
0
 40
0
 40
1
 40
1
 40
1
 40
1
 10
78.121592
 20
249.140781
 30
0.0
 10
78.372445
 20
248.825344
 30
0.0
 10
78.658959
 20
248.388832
 30
0.0
 10
78.758331
 20
248.170773
 30
0.0
  0
SPLINE
  5
18b
100
AcDbEntity
  8
Calque_1
 62
5
100
AcDbSpline
 70
8
 71
3
 72
8
 73
4
 74
0
 40
0
 40
0
 40
0
 40
0
 40
1
 40
1
 40
1
 40
1
 10
78.758331
 20
248.170773
 30
0.0
 10
79.028859
 20
247.577132
 30
0.0
 10
79.199588
 20
245.859345
 30
0.0
 10
79.097828
 20
244.754965
 30
0.0
  0
SPLINE
  5
18c
100
AcDbEntity
  8
Calque_1
 62
5
100
AcDbSpline
 70
8
 71
3
 72
8
 73
4
 74
0
 40
0
 40
0
 40
0
 40
0
 40
1
 40
1
 40
1
 40
1
 10
79.097828
 20
244.754965
 30
0.0
 10
79.077278
 20
244.532522
 30
0.0
 10
78.825096
 20
244.641712
 30
0.0
 10
78.825096
 20
244.872989
 30
0.0
  0
SPLINE
  5
18d
100
AcDbEntity
  8
Calque_1
 62
5
100
AcDbSpline
 70
8
 71
3
 72
8
 73
4
 74
0
 40
0
 40
0
 40
0
 40
0
 40
1
 40
1
 40
1
 40
1
 10
78.825096
 20
244.872989
 30
0.0
 10
78.825096
 20
245.432147
 30
0.0
 10
77.666344
 20
247.972121
 30
0.0
 10
77.167060
 20
248.507371
 30
0.0
  0
SPLINE
  5
18e
100
AcDbEntity
  8
Calque_1
 62
5
100
AcDbSpline
 70
8
 71
3
 72
8
 73
4
 74
0
 40
0
 40
0
 40
0
 40
0
 40
1
 40
1
 40
1
 40
1
 10
77.167060
 20
248.507371
 30
0.0
 10
76.667382
 20
249.043047
 30
0.0
 10
76.189554
 20
249.414426
 30
0.0
 10
76.000025
 20
249.414426
 30
0.0
  0
SPLINE
  5
18f
100
AcDbEntity
  8
Calque_1
 62
5
100
AcDbSpline
 70
8
 71
3
 72
8
 73
4
 74
0
 40
0
 40
0
 40
0
 40
0
 40
1
 40
1
 40
1
 40
1
 10
76.000025
 20
249.414426
 30
0.0
 10
75.950195
 20
249.414426
 30
0.0
 10
75.935925
 20
248.842576
 30
0.0
 10
75.968285
 20
248.143668
 30
0.0
  0
SPLINE
  5
190
100
AcDbEntity
  8
Calque_1
 62
5
100
AcDbSpline
 70
8
 71
3
 72
8
 73
4
 74
0
 40
0
 40
0
 40
0
 40
0
 40
1
 40
1
 40
1
 40
1
 10
75.968285
 20
248.143668
 30
0.0
 10
76.048535
 20
246.410105
 30
0.0
 10
76.327546
 20
245.759703
 30
0.0
 10
77.669753
 20
244.177345
 30
0.0
  0
SPLINE
  5
191
100
AcDbEntity
  8
Calque_1
 62
5
100
AcDbSpline
 70
8
 71
3
 72
8
 73
4
 74
0
 40
0
 40
0
 40
0
 40
0
 40
1
 40
1
 40
1
 40
1
 10
77.669753
 20
244.177345
 30
0.0
 10
78.963511
 20
242.652080
 30
0.0
 10
79.432844
 20
241.653878
 30
0.0
 10
79.534574
 20
240.210997
 30
0.0
  0
SPLINE
  5
192
100
AcDbEntity
  8
Calque_1
 62
5
100
AcDbSpline
 70
8
 71
3
 72
8
 73
4
 74
0
 40
0
 40
0
 40
0
 40
0
 40
1
 40
1
 40
1
 40
1
 10
79.534574
 20
240.210997
 30
0.0
 10
79.588344
 20
239.448379
 30
0.0
 10
79.564194
 20
239.248305
 30
0.0
 10
79.418070
 20
239.248305
 30
0.0
  0
SPLINE
  5
193
100
AcDbEntity
  8
Calque_1
 62
5
100
AcDbSpline
 70
8
 71
3
 72
8
 73
4
 74
0
 40
0
 40
0
 40
0
 40
0
 40
1
 40
1
 40
1
 40
1
 10
79.418070
 20
239.248305
 30
0.0
 10
79.316676
 20
239.248305
 30
0.0
 10
79.202217
 20
239.308165
 30
0.0
 10
79.163774
 20
239.381256
 30
0.0
  0
SPLINE
  5
194
100
AcDbEntity
  8
Calque_1
 62
5
100
AcDbSpline
 70
8
 71
3
 72
8
 73
4
 74
0
 40
0
 40
0
 40
0
 40
0
 40
1
 40
1
 40
1
 40
1
 10
79.163774
 20
239.381256
 30
0.0
 10
79.040407
 20
239.615932
 30
0.0
 10
77.335128
 20
240.918429
 30
0.0
 10
76.821035
 20
241.170637
 30
0.0
  0
SPLINE
  5
195
100
AcDbEntity
  8
Calque_1
 62
5
100
AcDbSpline
 70
8
 71
3
 72
8
 73
4
 74
0
 40
0
 40
0
 40
0
 40
0
 40
1
 40
1
 40
1
 40
1
 10
76.821035
 20
241.170637
 30
0.0
 10
76.547606
 20
241.304802
 30
0.0
 10
76.265958
 20
241.372468
 30
0.0
 10
76.195174
 20
241.321055
 30
0.0
  0
SPLINE
  5
196
100
AcDbEntity
  8
Calque_1
 62
5
100
AcDbSpline
 70
8
 71
3
 72
8
 73
4
 74
0
 40
0
 40
0
 40
0
 40
0
 40
1
 40
1
 40
1
 40
1
 10
76.195174
 20
241.321055
 30
0.0
 10
75.964030
 20
241.153138
 30
0.0
 10
76.901669
 20
239.402138
 30
0.0
 10
77.683238
 20
238.542199
 30
0.0
  0
SPLINE
  5
197
100
AcDbEntity
  8
Calque_1
 62
5
100
AcDbSpline
 70
8
 71
3
 72
8
 73
4
 74
0
 40
0
 40
0
 40
0
 40
0
 40
1
 40
1
 40
1
 40
1
 10
77.683238
 20
238.542199
 30
0.0
 10
78.100255
 20
238.083385
 30
0.0
 10
78.483543
 20
237.706473
 30
0.0
 10
78.534984
 20
237.704599
 30
0.0
  0
SPLINE
  5
198
100
AcDbEntity
  8
Calque_1
 62
5
100
AcDbSpline
 70
8
 71
3
 72
8
 73
4
 74
0
 40
0
 40
0
 40
0
 40
0
 40
1
 40
1
 40
1
 40
1
 10
78.534984
 20
237.704599
 30
0.0
 10
78.770451
 20
237.696099
 30
0.0
 10
79.898496
 20
236.312669
 30
0.0
 10
79.833154
 20
236.112596
 30
0.0
  0
SPLINE
  5
199
100
AcDbEntity
  8
Calque_1
 62
5
100
AcDbSpline
 70
8
 71
3
 72
8
 73
4
 74
0
 40
0
 40
0
 40
0
 40
0
 40
1
 40
1
 40
1
 40
1
 10
79.833154
 20
236.112596
 30
0.0
 10
79.744534
 20
235.841078
 30
0.0
 10
80.131969
 20
235.247440
 30
0.0
 10
80.397540
 20
235.247887
 30
0.0
  0
SPLINE
  5
19a
100
AcDbEntity
  8
Calque_1
 62
5
100
AcDbSpline
 70
8
 71
3
 72
8
 73
4
 74
0
 40
0
 40
0
 40
0
 40
0
 40
1
 40
1
 40
1
 40
1
 10
80.397540
 20
235.247887
 30
0.0
 10
80.554578
 20
235.248152
 30
0.0
 10
80.559081
 20
235.274107
 30
0.0
 10
80.419900
 20
235.378049
 30
0.0
  0
LWPOLYLINE
  5
19b
100
AcDbEntity
  8
Calque_1
 62
5
100
AcDbPolyline
 90
2
 70
0
 10
66.900866
 20
235.232503
 30
0.0
 10
66.900846
 20
235.232780
 30
0.0
  0
LWPOLYLINE
  5
19c
100
AcDbEntity
  8
Calque_1
 62
5
100
AcDbPolyline
 90
1
 70
1
 10
80.419900
 20
235.378049
 30
0.0
  0
ENDSEC
  0
SECTION
  2
OBJECTS
  0
DICTIONARY
  5
C
330
0
100
AcDbDictionary
  3
ACAD_GROUP
350
D
  3
ACAD_MLINESTYLE
350
17
  0
DICTIONARY
  5
D
330
C
100
AcDbDictionary
  0
DICTIONARY
  5
1A
330
C
100
AcDbDictionary
  0
DICTIONARY
  5
17
330
C
100
AcDbDictionary
  3
STANDARD
350
18
  0
DICTIONARY
  5
19
330
C
100
AcDbDictionary
  0
ENDSEC
  0
EOF
